<?xml version="1.0" encoding="UTF-8"?>
<!DOCTYPE svg PUBLIC "-//W3C//DTD SVG 1.1//EN" "http://www.w3.org/Graphics/SVG/1.1/DTD/svg11.dtd">
<svg xmlns="http://www.w3.org/2000/svg" version="1.1" width="512px" height="512px" style="shape-rendering:geometricPrecision; text-rendering:geometricPrecision; image-rendering:optimizeQuality; fill-rule:evenodd; clip-rule:evenodd" xmlns:xlink="http://www.w3.org/1999/xlink">
<g><path style="opacity:0.953" fill="#000000" d="M 373.5,12.5 C 411.501,12.3333 449.501,12.5 487.5,13C 490.913,14.0774 493.413,16.2441 495,19.5C 495.667,176.833 495.667,334.167 495,491.5C 493.413,494.756 490.913,496.923 487.5,498C 449.5,498.667 411.5,498.667 373.5,498C 370.417,497.214 368.251,495.381 367,492.5C 366.333,334.5 366.333,176.5 367,18.5C 368.494,15.6865 370.66,13.6865 373.5,12.5 Z M 387.5,33.5 C 416.5,33.5 445.5,33.5 474.5,33.5C 474.5,181.5 474.5,329.5 474.5,477.5C 445.5,477.5 416.5,477.5 387.5,477.5C 387.5,329.5 387.5,181.5 387.5,33.5 Z"/></g>
<g><path style="opacity:0.951" fill="#000000" d="M 200.5,125.5 C 238.501,125.333 276.501,125.5 314.5,126C 318.307,127.14 320.807,129.64 322,133.5C 322.667,252.5 322.667,371.5 322,490.5C 320.807,494.36 318.307,496.86 314.5,498C 276.5,498.667 238.5,498.667 200.5,498C 196.258,496.755 193.758,493.922 193,489.5C 192.333,371.167 192.333,252.833 193,134.5C 193.951,130.061 196.451,127.061 200.5,125.5 Z M 213.5,146.5 C 242.833,146.5 272.167,146.5 301.5,146.5C 301.5,256.833 301.5,367.167 301.5,477.5C 272.167,477.5 242.833,477.5 213.5,477.5C 213.5,367.167 213.5,256.833 213.5,146.5 Z"/></g>
<g><path style="opacity:0.955" fill="#000000" d="M 21.5,238.5 C 60.5014,238.333 99.5014,238.5 138.5,239C 141,240.167 142.833,242 144,244.5C 144.667,327.167 144.667,409.833 144,492.5C 142.749,495.381 140.583,497.214 137.5,498C 99.5,498.667 61.5,498.667 23.5,498C 20.087,496.923 17.587,494.756 16,491.5C 15.3333,409.5 15.3333,327.5 16,245.5C 16.9383,242.402 18.7716,240.069 21.5,238.5 Z M 36.5,259.5 C 65.5,259.5 94.5,259.5 123.5,259.5C 123.5,332.167 123.5,404.833 123.5,477.5C 94.5,477.5 65.5,477.5 36.5,477.5C 36.5,404.833 36.5,332.167 36.5,259.5 Z"/></g>
</svg>
